<svg xmlns="http://www.w3.org/2000/svg" viewBox="0 0 128 128" width="128" height="128">
  <rect width="128" height="128" rx="16" fill="#1a1a2e"/>
  <rect x="8" y="8" width="112" height="112" rx="12" fill="#16213e"/>
  <!-- VR goggles outline -->
  <path d="M20 52 Q20 44 28 44 L44 44 Q48 44 50 48 L54 54 L74 54 L78 48 Q80 44 84 44 L100 44 Q108 44 108 52 L108 76 Q108 84 100 84 L80 84 Q74 84 70 78 L64 72 L58 78 Q54 84 48 84 L28 84 Q20 84 20 76 Z" fill="none" stroke="#478CBF" stroke-width="3"/>
  <!-- Grid lines suggesting CAD -->
  <line x1="40" y1="96" x2="88" y2="96" stroke="#478CBF" stroke-width="1.5" opacity="0.6"/>
  <line x1="32" y1="104" x2="96" y2="104" stroke="#478CBF" stroke-width="1.5" opacity="0.4"/>
  <line x1="40" y1="96" x2="32" y2="104" stroke="#478CBF" stroke-width="1.5" opacity="0.4"/>
  <line x1="88" y1="96" x2="96" y2="104" stroke="#478CBF" stroke-width="1.5" opacity="0.4"/>
  <!-- Left lens -->
  <ellipse cx="44" cy="64" rx="16" ry="14" fill="#478CBF" opacity="0.3"/>
  <!-- Right lens -->
  <ellipse cx="84" cy="64" rx="16" ry="14" fill="#478CBF" opacity="0.3"/>
</svg>
